<svg width="17" height="16" viewBox="0 0 17 16" fill="none" xmlns="http://www.w3.org/2000/svg">
<path fill-rule="evenodd" clip-rule="evenodd" d="M8.49984 3.0665C8.49984 3.28742 8.32075 3.4665 8.09984 3.4665L5.29984 3.4665C4.56346 3.4665 3.9665 4.06346 3.9665 4.79984L3.9665 11.1998C3.9665 11.9362 4.56346 12.5332 5.29984 12.5332H11.6998C12.4362 12.5332 13.0332 11.9362 13.0332 11.1998V8.39984C13.0332 8.17892 13.2123 7.99984 13.4332 7.99984C13.6541 7.99984 13.8332 8.17892 13.8332 8.39984V11.1998C13.8332 12.378 12.878 13.3332 11.6998 13.3332H5.29984C4.12163 13.3332 3.1665 12.378 3.1665 11.1998V4.79984C3.1665 3.62163 4.12163 2.6665 5.29984 2.6665H8.09984C8.32075 2.6665 8.49984 2.84559 8.49984 3.0665ZM12.8562 2.66765C13.4299 2.66465 13.4328 2.66463 13.5317 2.70563C13.6504 2.75456 13.7448 2.84863 13.7942 2.96714C13.8009 2.98344 13.8066 2.99699 13.8113 3.01087C13.853 3.13344 13.8201 3.28131 13.8314 5.57301C13.8314 5.70145 13.7804 5.82462 13.6896 5.91544C13.5988 6.00626 13.4757 6.05728 13.3472 6.05728C13.2188 6.05728 13.0957 6.00626 13.0049 5.91544C12.9141 5.82462 12.863 5.70145 12.863 5.57301V4.32117L7.33231 9.85199C7.28764 9.89825 7.23421 9.93514 7.17514 9.96052C7.11607 9.9859 7.05253 9.99926 6.98824 9.99982C6.92395 10.0004 6.86019 9.98812 6.80068 9.96378C6.74118 9.93943 6.68712 9.90347 6.64165 9.858C6.59619 9.81253 6.56024 9.75846 6.53589 9.69894C6.51155 9.63943 6.4993 9.57566 6.49986 9.51136C6.50041 9.44706 6.51377 9.38351 6.53915 9.32443C6.56452 9.26534 6.60141 9.21191 6.64766 9.16723L12.1784 3.63592H10.9263C10.7979 3.63592 10.6747 3.5849 10.5839 3.49408C10.4931 3.40326 10.4421 3.28009 10.4421 3.15165C10.4421 3.02321 10.4931 2.90004 10.5839 2.80922C10.6747 2.7184 10.7979 2.66738 10.9263 2.66738C11.9071 2.67262 12.4949 2.66954 12.8562 2.66765Z" fill="#4360DF"/>
</svg>
