<svg width="32" height="30" viewBox="0 0 32 30" fill="none" xmlns="http://www.w3.org/2000/svg">
<path d="M3.75 1.875C1.68756 1.875 0 3.56244 0 5.625C0 7.68744 1.68756 9.375 3.75 9.375C5.81244 9.375 7.5 7.68744 7.5 5.625C7.5 3.56244 5.81244 1.875 3.75 1.875Z" fill="#FF6C6C"/>
<path d="M0 5.625H7.5C7.5 7.68744 5.81244 9.375 3.75 9.375C1.68756 9.375 0 7.68744 0 5.625Z" fill="#E63950"/>
<path d="M10.3125 1.875H32V9.375H10.3125V1.875Z" fill="#FF6C6C"/>
<path d="M10.3125 5.625H32V9.375H10.3125V5.625Z" fill="#E63950"/>
<path d="M10.3125 11.25H20.75V18.75H10.3125V11.25Z" fill="#97DE3D"/>
<path d="M3.75 11.25C1.68756 11.25 0 12.9374 0 15C0 17.0624 1.68756 18.75 3.75 18.75C5.81244 18.75 7.5 17.0624 7.5 15C7.5 12.9374 5.81244 11.25 3.75 11.25Z" fill="#97DE3D"/>
<path d="M0 15H7.5C7.5 17.0624 5.81244 18.75 3.75 18.75C1.68756 18.75 0 17.0624 0 15Z" fill="#59C36A"/>
<path d="M10.3125 15H20.75V18.75H10.3125V15Z" fill="#59C36A"/>
<path d="M10.3125 20.625H28.25V28.125H10.3125V20.625Z" fill="#FED843"/>
<path d="M3.75 20.625C1.68756 20.625 0 22.3124 0 24.375C0 26.4374 1.68756 28.125 3.75 28.125C5.81244 28.125 7.5 26.4374 7.5 24.375C7.5 22.3124 5.81244 20.625 3.75 20.625Z" fill="#FED843"/>
<path d="M0 24.375H7.5C7.5 26.4374 5.81244 28.125 3.75 28.125C1.68756 28.125 0 26.4374 0 24.375Z" fill="#FABE2C"/>
<path d="M10.3125 24.375H28.25V28.125H10.3125V24.375Z" fill="#FABE2C"/>
<path d="M9.375 0H11.25V30H9.375V0Z" fill="#474F54"/>
<path d="M9.375 15H11.25V30H9.375V15Z" fill="#32393F"/>
</svg>
