<svg width="20" height="20" viewBox="0 0 20 20" fill="none" xmlns="http://www.w3.org/2000/svg">
<path d="M10 5.25C10.4142 5.25 10.75 5.58579 10.75 6V8.75C10.75 9.02614 10.9739 9.25 11.25 9.25H14C14.4142 9.25 14.75 9.58579 14.75 10C14.75 10.4142 14.4142 10.75 14 10.75H11.25C10.9739 10.75 10.75 10.9739 10.75 11.25V14C10.75 14.4142 10.4142 14.75 10 14.75C9.58579 14.75 9.25 14.4142 9.25 14V11.25C9.25 10.9739 9.02614 10.75 8.75 10.75H6C5.58579 10.75 5.25 10.4142 5.25 10C5.25 9.58579 5.58579 9.25 6 9.25H8.75C9.02614 9.25 9.25 9.02614 9.25 8.75V6C9.25 5.58579 9.58579 5.25 10 5.25Z" fill="black"/>
<path fill-rule="evenodd" clip-rule="evenodd" d="M10 20C15.5228 20 20 15.5228 20 10C20 4.47715 15.5228 -2.41411e-07 10 0C4.47715 2.41411e-07 -2.41411e-07 4.47715 0 10C2.41411e-07 15.5228 4.47715 20 10 20ZM10 18.5C14.6944 18.5 18.5 14.6944 18.5 10C18.5 5.30558 14.6944 1.5 10 1.5C5.30558 1.5 1.5 5.30558 1.5 10C1.5 14.6944 5.30558 18.5 10 18.5Z" fill="black"/>
</svg>
