<svg width="120" height="45" viewBox="0 0 120 45" fill="none" xmlns="http://www.w3.org/2000/svg">
<path fill-rule="evenodd" clip-rule="evenodd" d="M22.667 0C10.1481 0 0 10.0736 0 22.5C0 34.9264 10.1481 45 22.667 45C35.1859 45 45.3349 34.9264 45.3349 22.5C45.3349 10.0736 35.1859 0 22.667 0Z" fill="#4360DF"/>
<path d="M22.7854 21.5139C23.9287 21.6312 25.0711 21.7485 26.4762 21.6714C30.2822 21.4616 32.5881 19.5299 32.4244 16.6426C32.2573 13.7048 29.19 11.8951 26.1211 12.0647C21.1192 12.3395 17.4406 16.682 17.0271 21.6432C17.7065 21.4865 18.4217 21.3917 19.0954 21.3548C20.5006 21.2776 21.643 21.3949 22.7854 21.5131V21.5139ZM12.9811 27.936C13.1384 30.6288 16.0444 32.2882 18.9519 32.1323C23.6919 31.8799 27.176 27.8998 27.5676 23.3516C26.9238 23.4963 26.2468 23.5823 25.6079 23.6168C24.2773 23.6875 23.1949 23.579 22.1117 23.4722C21.0292 23.3637 19.9468 23.256 18.6154 23.3275C15.0098 23.5196 12.8262 25.2898 12.9803 27.9368L12.9811 27.936Z" fill="white"/>
<path d="M54.1572 26.2366H57.4394C57.4394 26.7871 57.5959 27.1824 57.9097 27.4227C58.2234 27.6629 58.6256 27.7827 59.1178 27.7827C59.5232 27.7827 59.8556 27.7087 60.1118 27.5601C60.3753 27.405 60.5067 27.1543 60.5067 26.8079C60.5067 26.603 60.4499 26.4375 60.3364 26.3097C60.2294 26.1763 60.0616 26.0598 59.8337 25.961C59.5496 25.8344 59.2567 25.728 58.9572 25.6428C58.6005 25.5367 58.1732 25.4025 57.6745 25.241C57.2468 25.1069 56.8226 24.9619 56.4024 24.8063C56.0321 24.663 55.6833 24.4705 55.3653 24.2341C55.0711 24.0139 54.8301 23.7314 54.6599 23.4072C54.4961 23.0826 54.4143 22.68 54.4143 22.1995C54.4143 21.649 54.5245 21.1725 54.7459 20.7691C54.9673 20.3659 55.2867 20.0237 55.6751 19.7735C56.0748 19.5123 56.5524 19.3187 57.1078 19.1909C57.7105 19.0516 58.3278 18.9841 58.9467 18.99C59.7656 18.99 60.471 19.0816 61.0629 19.2656C61.6548 19.4488 62.1388 19.6996 62.5167 20.0178C62.8945 20.3352 63.1726 20.7096 63.3502 21.1404C63.5359 21.5711 63.6283 22.0339 63.6283 22.5281H60.3251C60.3251 22.0974 60.2115 21.7615 59.9829 21.5221C59.7624 21.281 59.4234 21.1612 58.9678 21.1612C58.6191 21.1612 58.3191 21.2392 58.0702 21.3943C57.8205 21.5429 57.6956 21.7687 57.6956 22.0725C57.6956 22.2774 57.7524 22.4437 57.8667 22.5707C57.9883 22.6912 58.1626 22.7997 58.3905 22.8994C58.6183 22.9982 58.9005 23.1003 59.2353 23.2063C59.5702 23.3052 59.9545 23.4249 60.3899 23.5663C60.8602 23.6933 61.298 23.8347 61.7043 23.9898C62.1105 24.1457 62.4664 24.3362 62.7729 24.562C63.0867 24.7813 63.3324 25.0602 63.5107 25.3993C63.6964 25.7312 63.7888 26.1546 63.7888 26.6705C63.7888 27.278 63.6607 27.7971 63.4037 28.2279C63.1473 28.6515 62.7915 29.0077 62.3667 29.2661C61.9394 29.5345 61.4407 29.7249 60.8707 29.8382C60.3007 29.9587 59.7016 30.0182 59.0748 30.0182C57.514 30.0182 56.3026 29.6968 55.4399 29.0539C54.5853 28.4046 54.1572 27.4661 54.1572 26.2366ZM64.6224 21.7446V19.2761H66.2797V16.1719H69.6145V19.2761H72.0194V21.7446H69.6145V25.4837C69.6145 25.8726 69.6502 26.1828 69.7215 26.4158C69.7929 26.6424 69.8918 26.8224 70.0207 26.9566C70.1561 27.0836 70.3167 27.1687 70.5015 27.2105C70.6945 27.2459 70.9078 27.2636 71.1429 27.2636C71.2856 27.2636 71.4672 27.2604 71.6886 27.2531C71.9091 27.2395 72.1021 27.2178 72.2651 27.1888V29.7321C72.0161 29.7747 71.7024 29.8133 71.3245 29.8487C70.8875 29.8868 70.4489 29.9045 70.0102 29.9017C69.6178 29.9017 69.2051 29.8736 68.7697 29.8173C68.338 29.7619 67.9248 29.6097 67.5615 29.3721C67.1918 29.1311 66.8853 28.7646 66.6429 28.2704C66.4005 27.769 66.2797 27.0836 66.2797 26.2149V21.7446H64.6224ZM73.2275 24.4985C73.2275 23.715 73.3524 22.9878 73.6013 22.3168C73.8377 21.6782 74.1974 21.0914 74.6602 20.5891C75.1108 20.1061 75.6516 19.7142 76.2526 19.4352C76.8682 19.1503 77.5403 19.0054 78.2197 19.0109C79.0102 19.0109 79.6953 19.1772 80.2718 19.5091C80.8556 19.841 81.2943 20.2612 81.587 20.7699V19.2753H84.9324V29.7321H81.587V28.2592C81.3226 28.7397 80.8986 29.1496 80.314 29.4887C79.7302 29.8278 79.0321 29.9973 78.2197 29.9973C77.5207 29.9973 76.8656 29.8559 76.2526 29.573C75.6515 29.2938 75.1107 28.9016 74.6602 28.4183C74.1989 27.9113 73.8395 27.3216 73.6013 26.681C73.347 25.9812 73.2204 25.2422 73.2275 24.4985ZM76.5518 24.4985C76.5518 24.8593 76.6126 25.2056 76.7334 25.5367C76.8616 25.8621 77.0334 26.1442 77.2467 26.3845C77.468 26.6175 77.7316 26.8079 78.038 26.9566C78.3445 27.098 78.6867 27.1688 79.0637 27.1688C79.4416 27.1688 79.7837 27.098 80.0902 26.9566C80.3889 26.8189 80.6575 26.6245 80.8807 26.3845C81.1021 26.1442 81.2732 25.8621 81.394 25.5367C81.5221 25.2121 81.587 24.8657 81.587 24.4985C81.587 24.1385 81.5221 23.7994 81.394 23.482C81.277 23.1705 81.103 22.8831 80.8807 22.6342C80.6663 22.3864 80.4002 22.1877 80.1007 22.0516C79.775 21.9062 79.4209 21.8338 79.0637 21.8395C78.6859 21.8395 78.3445 21.9102 78.038 22.0516C77.7363 22.1893 77.4668 22.3877 77.2467 22.6342C77.0326 22.8817 76.8616 23.1646 76.7334 23.482C76.6118 23.7994 76.5518 24.1385 76.5518 24.4985ZM86.7283 21.7446V19.2761H88.3848V16.1719H91.7205V19.2761H94.1253V21.7446H91.7205V25.4837C91.7205 25.8726 91.7561 26.1828 91.8267 26.4158C91.898 26.6424 91.9978 26.8224 92.1267 26.9566C92.2621 27.0836 92.4218 27.1687 92.6075 27.2105C92.7997 27.2459 93.0137 27.2636 93.2488 27.2636C93.3915 27.2636 93.5732 27.2604 93.7937 27.2531C94.0151 27.2395 94.2072 27.2178 94.371 27.1888V29.7321C94.1221 29.7747 93.8083 29.8133 93.4305 29.8487C92.9932 29.8868 92.5543 29.9045 92.1153 29.9017C91.7237 29.9017 91.3102 29.8736 90.8756 29.8173C90.444 29.7619 90.0308 29.6096 89.6675 29.3721C89.297 29.1311 88.9905 28.7646 88.7488 28.2704C88.5064 27.769 88.3848 27.0836 88.3848 26.2149V21.7446H86.7283ZM96.0283 25.4837V19.2761H99.3526V24.6359C99.3526 25.3848 99.488 25.9963 99.7589 26.4696C100.03 26.9357 100.514 27.1688 101.213 27.1688C101.911 27.1688 102.424 26.9317 102.752 26.4584C103.086 25.9787 103.254 25.3318 103.254 24.5202V19.2761H106.6V29.7321H103.254V28.2383C102.962 28.7896 102.516 29.2203 101.918 29.5304C101.319 29.8414 100.603 29.9965 99.7694 29.9965C99.0421 29.9965 98.4437 29.884 97.9734 29.6582C97.5392 29.4542 97.1532 29.1618 96.8407 28.8C96.5048 28.3964 96.2767 27.9156 96.1775 27.4018C96.0778 26.8714 96.0283 26.2326 96.0283 25.4837ZM108.759 26.2366H112.041C112.041 26.7871 112.197 27.1824 112.511 27.4227C112.824 27.6629 113.227 27.7827 113.719 27.7827C114.125 27.7827 114.456 27.7087 114.713 27.5601C114.977 27.405 115.108 27.1543 115.108 26.8079C115.108 26.603 115.052 26.4375 114.937 26.3097C114.831 26.1763 114.663 26.0598 114.435 25.961C114.151 25.8345 113.858 25.7282 113.559 25.6428C113.202 25.5367 112.775 25.4025 112.276 25.241C111.848 25.1069 111.424 24.962 111.004 24.8063C110.634 24.6631 110.285 24.4706 109.967 24.2341C109.673 24.0139 109.432 23.7314 109.262 23.4072C109.098 23.0826 109.016 22.68 109.016 22.1995C109.016 21.649 109.126 21.1725 109.347 20.7691C109.569 20.3659 109.888 20.0238 110.277 19.7735C110.676 19.5123 111.153 19.3187 111.709 19.1909C112.312 19.0515 112.929 18.9841 113.548 18.99C114.367 18.99 115.073 19.0816 115.665 19.2656C116.256 19.4488 116.74 19.6996 117.118 20.0178C117.496 20.3352 117.773 20.7096 117.952 21.1404C118.139 21.5793 118.234 22.0516 118.23 22.5281H114.927C114.927 22.0974 114.813 21.7615 114.585 21.5221C114.364 21.281 114.025 21.1612 113.569 21.1612C113.22 21.1612 112.921 21.2392 112.671 21.3943C112.422 21.5429 112.297 21.7687 112.297 22.0725C112.297 22.2774 112.354 22.4437 112.468 22.5707C112.589 22.6912 112.764 22.7997 112.992 22.8994C113.22 22.9982 113.501 23.1003 113.836 23.2063C114.172 23.3052 114.556 23.4249 114.991 23.5663C115.461 23.6933 115.9 23.8347 116.306 23.9898C116.712 24.1457 117.068 24.3362 117.375 24.562C117.688 24.7813 117.934 25.0602 118.112 25.3993C118.297 25.7312 118.39 26.1546 118.39 26.6705C118.39 27.278 118.262 27.7971 118.005 28.2279C117.749 28.6516 117.393 29.0077 116.968 29.2661C116.541 29.5345 116.042 29.7249 115.472 29.8382C114.902 29.9587 114.303 30.0182 113.676 30.0182C112.116 30.0182 110.904 29.6968 110.042 29.0539C109.187 28.4046 108.759 27.4661 108.759 26.2366Z" fill="black"/>
</svg>
